<?xml version="1.0" ?><svg enable-background="new 0 0 32 32" version="1.1" viewBox="0 0 32 32" xml:space="preserve" xmlns="http://www.w3.org/2000/svg" xmlns:xlink="http://www.w3.org/1999/xlink"><g id="Filled"><g><g><path d="M4.031,26.768C2.359,26.768,1,25.409,1,23.737V10.701C1,9.029,2.359,7.67,4.031,7.67h23.938     c1.671,0,3.03,1.359,3.03,3.031v13.036c0,1.672-1.359,3.031-3.03,3.031H4.031z" fill="#6FD4F7"/></g><g><g><path d="M27.969,8.67c1.12,0,2.031,0.911,2.031,2.031v13.037c0,1.12-0.911,2.031-2.031,2.031H4.031      C2.911,25.768,2,24.857,2,23.737V10.701C2,9.581,2.911,8.67,4.031,8.67H27.969 M27.969,6.67H4.031C1.814,6.67,0,8.484,0,10.701      v13.037c0,2.217,1.814,4.031,4.031,4.031h23.938c2.217,0,4.031-1.814,4.031-4.031V10.701C32,8.484,30.186,6.67,27.969,6.67      L27.969,6.67z"/></g></g></g><g><circle cx="16" cy="17.219" fill="#FFFFFF" r="5.25"/><path d="M16,23.469c-3.446,0-6.25-2.804-6.25-6.25s2.804-6.25,6.25-6.25s6.25,2.804,6.25,6.25S19.446,23.469,16,23.469z     M16,12.969c-2.344,0-4.25,1.906-4.25,4.25s1.906,4.25,4.25,4.25s4.25-1.906,4.25-4.25S18.343,12.969,16,12.969z"/></g><g><circle cx="14.746" cy="14.903" r="1.75"/></g><g><rect height="1.962" width="3.999" x="23.492" y="10.74"/></g><g><path d="M17.392,8.162V5.309c0-0.592,0.485-1.077,1.077-1.077h7.308c0.592,0,1.077,0.485,1.077,1.077v2.853"/></g></g></svg>